<svg width="2060" height="2681" viewBox="0 0 2060 2681" fill="none" xmlns="http://www.w3.org/2000/svg">
<rect x="1085" width="194" height="2222" fill="#00FFD1"/>
<rect x="1730" y="169.007" width="165" height="2038" fill="#00FFD1"/>
<rect x="1576" y="215.037" width="165" height="2038" fill="#00FFD1"/>
<rect x="1429" y="85" width="165" height="2137" fill="#00FFD1"/>
<rect x="1266" y="184.008" width="165" height="2038" fill="#00FFD1"/>
<rect x="490" y="328.983" width="165" height="2351.99" fill="#14FF8E"/>
<rect x="966" y="169.007" width="165" height="2038" fill="#14FF8E"/>
<rect x="801" y="328.983" width="165" height="2351.99" fill="#14FF8E"/>
<rect x="642" y="151" width="165" height="2530" fill="#14FF8E"/>
<rect x="325" y="962.977" width="165" height="160" fill="#14FF8E"/>
<rect x="325" y="803.001" width="165" height="160" fill="#14FF8E"/>
<rect x="166" y="1118.02" width="165" height="160" fill="#14FF8E"/>
<rect x="1743" y="803.001" width="165" height="160" fill="#CD0031"/>
<rect x="967" y="803.001" width="165" height="160" fill="#CD0031"/>
<rect x="1578" y="803.001" width="165" height="160" fill="white"/>
<rect x="802" y="803.001" width="165" height="160" fill="white"/>
<rect x="1741" y="642.975" width="165" height="160" fill="#38D389"/>
<rect x="1576" y="642.975" width="165" height="160" fill="#38D389"/>
<rect x="967" y="642.975" width="165" height="160" fill="#38D389"/>
<rect x="802" y="642.975" width="165" height="160" fill="#38D389"/>
<rect x="1299" y="1283.03" width="165" height="160" fill="#0B0303"/>
<rect x="1464" y="1283.03" width="165" height="160" fill="#0B0303"/>
<rect x="1299" y="1742" width="165" height="160" fill="#0B0303"/>
<rect x="1464" y="1742" width="165" height="160" fill="#0B0303"/>
<rect x="1134" y="1742" width="165" height="160" fill="#0B0303"/>
<rect x="684" y="1443.01" width="165" height="160" fill="#0B0303"/>
<rect x="1895" y="1886.97" width="165" height="160" fill="black"/>
<rect x="946" y="2360.99" width="165" height="160" fill="black"/>
<rect x="946" y="2207.02" width="165" height="160" fill="black"/>
<rect x="1111" y="2207.02" width="165" height="160" fill="black"/>
<rect x="1413" y="2207.02" width="165" height="160" fill="black"/>
<rect x="1578" y="2207.02" width="165" height="160" fill="black"/>
<rect x="946" y="2520.96" width="165" height="160" fill="black"/>
<rect x="1741" y="2047" width="165" height="160" fill="black"/>
<path d="M323 90L490 215.5L490 489H323L323 90Z" fill="black"/>
<rect x="323" y="489.009" width="165" height="160" fill="black"/>
<rect x="323" y="1123" width="165" height="1558" fill="black"/>
<rect x="1895" y="328.983" width="165" height="1558" fill="black"/>
<rect x="158" y="1276.97" width="165" height="160" fill="black"/>
<rect x="1248" y="2207.02" width="165" height="160" fill="black"/>
<rect x="323" y="649.036" width="165" height="160" fill="black"/>
<rect x="158" y="649.036" width="165" height="160" fill="black"/>
<rect x="158" y="803.001" width="165" height="160" fill="black"/>
<rect x="158" y="962.977" width="165" height="160" fill="black"/>
<rect y="1123" width="165" height="160" fill="black"/>
</svg>
