<svg width="70" height="25" viewBox="0 0 70 25" fill="none" xmlns="http://www.w3.org/2000/svg">
<rect width="70" height="25" fill="#42FF4A" fill-opacity="0.2"/>
<path d="M9.262 16H8.098V7.402H9.262V16ZM12.1235 10.804C12.2555 10.656 12.3955 10.522 12.5435 10.402C12.6915 10.282 12.8475 10.18 13.0115 10.096C13.1795 10.008 13.3555 9.942 13.5395 9.898C13.7275 9.85 13.9295 9.826 14.1455 9.826C14.4775 9.826 14.7695 9.882 15.0215 9.994C15.2775 10.102 15.4895 10.258 15.6575 10.462C15.8295 10.662 15.9595 10.904 16.0475 11.188C16.1355 11.472 16.1795 11.786 16.1795 12.13V16H15.1055V12.13C15.1055 11.67 14.9995 11.314 14.7875 11.062C14.5795 10.806 14.2615 10.678 13.8335 10.678C13.5175 10.678 13.2215 10.754 12.9455 10.906C12.6735 11.058 12.4215 11.264 12.1895 11.524V16H11.1155V9.922H11.7575C11.9095 9.922 12.0035 9.996 12.0395 10.144L12.1235 10.804ZM21.9513 14.536C22.1473 14.8 22.3613 14.986 22.5933 15.094C22.8253 15.202 23.0853 15.256 23.3733 15.256C23.9413 15.256 24.3773 15.054 24.6813 14.65C24.9853 14.246 25.1373 13.67 25.1373 12.922C25.1373 12.526 25.1013 12.186 25.0293 11.902C24.9613 11.618 24.8613 11.386 24.7293 11.206C24.5973 11.022 24.4353 10.888 24.2433 10.804C24.0513 10.72 23.8333 10.678 23.5893 10.678C23.2413 10.678 22.9353 10.758 22.6713 10.918C22.4113 11.078 22.1713 11.304 21.9513 11.596V14.536ZM21.8973 10.864C22.1533 10.548 22.4493 10.294 22.7853 10.102C23.1213 9.91 23.5053 9.814 23.9373 9.814C24.2893 9.814 24.6073 9.882 24.8913 10.018C25.1753 10.15 25.4173 10.348 25.6173 10.612C25.8173 10.872 25.9713 11.196 26.0793 11.584C26.1873 11.972 26.2413 12.418 26.2413 12.922C26.2413 13.37 26.1813 13.788 26.0612 14.176C25.9413 14.56 25.7673 14.894 25.5393 15.178C25.3153 15.458 25.0393 15.68 24.7113 15.844C24.3873 16.004 24.0213 16.084 23.6133 16.084C23.2413 16.084 22.9213 16.022 22.6533 15.898C22.3893 15.77 22.1553 15.594 21.9513 15.37V18.058H20.8773V9.922H21.5193C21.6713 9.922 21.7653 9.996 21.8013 10.144L21.8973 10.864ZM28.6178 11.14C28.8098 10.724 29.0458 10.4 29.3258 10.168C29.6058 9.932 29.9478 9.814 30.3518 9.814C30.4798 9.814 30.6018 9.828 30.7178 9.856C30.8378 9.884 30.9438 9.928 31.0358 9.988L30.9578 10.786C30.9338 10.886 30.8738 10.936 30.7778 10.936C30.7218 10.936 30.6398 10.924 30.5318 10.9C30.4238 10.876 30.3018 10.864 30.1658 10.864C29.9738 10.864 29.8018 10.892 29.6498 10.948C29.5018 11.004 29.3678 11.088 29.2478 11.2C29.1318 11.308 29.0258 11.444 28.9298 11.608C28.8378 11.768 28.7538 11.952 28.6778 12.16V16H27.6038V9.922H28.2158C28.3318 9.922 28.4118 9.944 28.4558 9.988C28.4998 10.032 28.5298 10.108 28.5458 10.216L28.6178 11.14ZM34.2908 9.826C34.7348 9.826 35.1348 9.9 35.4908 10.048C35.8468 10.196 36.1508 10.406 36.4028 10.678C36.6548 10.95 36.8468 11.28 36.9788 11.668C37.1148 12.052 37.1828 12.482 37.1828 12.958C37.1828 13.438 37.1148 13.87 36.9788 14.254C36.8468 14.638 36.6548 14.966 36.4028 15.238C36.1508 15.51 35.8468 15.72 35.4908 15.868C35.1348 16.012 34.7348 16.084 34.2908 16.084C33.8428 16.084 33.4388 16.012 33.0788 15.868C32.7228 15.72 32.4188 15.51 32.1668 15.238C31.9148 14.966 31.7208 14.638 31.5848 14.254C31.4528 13.87 31.3868 13.438 31.3868 12.958C31.3868 12.482 31.4528 12.052 31.5848 11.668C31.7208 11.28 31.9148 10.95 32.1668 10.678C32.4188 10.406 32.7228 10.196 33.0788 10.048C33.4388 9.9 33.8428 9.826 34.2908 9.826ZM34.2908 15.25C34.8908 15.25 35.3388 15.05 35.6348 14.65C35.9308 14.246 36.0788 13.684 36.0788 12.964C36.0788 12.24 35.9308 11.676 35.6348 11.272C35.3388 10.868 34.8908 10.666 34.2908 10.666C33.9868 10.666 33.7208 10.718 33.4928 10.822C33.2688 10.926 33.0808 11.076 32.9288 11.272C32.7808 11.468 32.6688 11.71 32.5928 11.998C32.5208 12.282 32.4848 12.604 32.4848 12.964C32.4848 13.684 32.6328 14.246 32.9288 14.65C33.2288 15.05 33.6828 15.25 34.2908 15.25ZM40.6203 13.03C40.8363 13.03 41.0263 13 41.1903 12.94C41.3543 12.88 41.4923 12.796 41.6043 12.688C41.7163 12.58 41.8003 12.452 41.8563 12.304C41.9123 12.152 41.9403 11.986 41.9403 11.806C41.9403 11.434 41.8263 11.138 41.5983 10.918C41.3743 10.698 41.0483 10.588 40.6203 10.588C40.1883 10.588 39.8583 10.698 39.6303 10.918C39.4063 11.138 39.2943 11.434 39.2943 11.806C39.2943 11.986 39.3223 12.152 39.3783 12.304C39.4383 12.452 39.5243 12.58 39.6363 12.688C39.7483 12.796 39.8863 12.88 40.0503 12.94C40.2143 13 40.4043 13.03 40.6203 13.03ZM42.5463 16.33C42.5463 16.182 42.5043 16.062 42.4203 15.97C42.3363 15.878 42.2223 15.806 42.0783 15.754C41.9383 15.702 41.7743 15.666 41.5863 15.646C41.3983 15.622 41.1983 15.604 40.9863 15.592C40.7783 15.58 40.5663 15.568 40.3503 15.556C40.1343 15.544 39.9263 15.524 39.7263 15.496C39.5023 15.6 39.3183 15.732 39.1743 15.892C39.0343 16.048 38.9643 16.232 38.9643 16.444C38.9643 16.58 38.9983 16.706 39.0663 16.822C39.1383 16.942 39.2463 17.044 39.3903 17.128C39.5343 17.216 39.7143 17.284 39.9303 17.332C40.1503 17.384 40.4083 17.41 40.7043 17.41C40.9923 17.41 41.2503 17.384 41.4783 17.332C41.7063 17.28 41.8983 17.206 42.0543 17.11C42.2143 17.014 42.3363 16.9 42.4203 16.768C42.5043 16.636 42.5463 16.49 42.5463 16.33ZM43.6323 10.162V10.558C43.6323 10.69 43.5483 10.774 43.3803 10.81L42.6903 10.9C42.8263 11.164 42.8943 11.456 42.8943 11.776C42.8943 12.072 42.8363 12.342 42.7203 12.586C42.6083 12.826 42.4523 13.032 42.2523 13.204C42.0523 13.376 41.8123 13.508 41.5323 13.6C41.2523 13.692 40.9483 13.738 40.6203 13.738C40.3363 13.738 40.0683 13.704 39.8163 13.636C39.6883 13.716 39.5903 13.802 39.5223 13.894C39.4543 13.982 39.4202 14.072 39.4202 14.164C39.4202 14.308 39.4783 14.418 39.5943 14.494C39.7143 14.566 39.8703 14.618 40.0623 14.65C40.2543 14.682 40.4723 14.702 40.7163 14.71C40.9643 14.718 41.2163 14.732 41.4723 14.752C41.7323 14.768 41.9843 14.798 42.2283 14.842C42.4763 14.886 42.6963 14.958 42.8883 15.058C43.0803 15.158 43.2343 15.296 43.3503 15.472C43.4703 15.648 43.5303 15.876 43.5303 16.156C43.5303 16.416 43.4643 16.668 43.3323 16.912C43.2043 17.156 43.0183 17.372 42.7743 17.56C42.5303 17.752 42.2303 17.904 41.8743 18.016C41.5223 18.132 41.1243 18.19 40.6803 18.19C40.2363 18.19 39.8483 18.146 39.5163 18.058C39.1843 17.97 38.9083 17.852 38.6883 17.704C38.4683 17.556 38.3023 17.384 38.1903 17.188C38.0823 16.996 38.0283 16.794 38.0283 16.582C38.0283 16.282 38.1223 16.028 38.3103 15.82C38.4983 15.612 38.7563 15.446 39.0843 15.322C38.9043 15.242 38.7603 15.136 38.6523 15.004C38.5483 14.868 38.4963 14.686 38.4963 14.458C38.4963 14.37 38.5123 14.28 38.5443 14.188C38.5763 14.092 38.6243 13.998 38.6883 13.906C38.7563 13.81 38.8383 13.72 38.9343 13.636C39.0303 13.552 39.1423 13.478 39.2703 13.414C38.9703 13.246 38.7363 13.024 38.5683 12.748C38.4003 12.468 38.3163 12.144 38.3163 11.776C38.3163 11.48 38.3723 11.212 38.4843 10.972C38.6003 10.728 38.7603 10.522 38.9643 10.354C39.1683 10.182 39.4103 10.05 39.6903 9.958C39.9743 9.866 40.2843 9.82 40.6203 9.82C40.8843 9.82 41.1303 9.85 41.3583 9.91C41.5863 9.966 41.7943 10.05 41.9823 10.162H43.6323ZM45.7506 11.14C45.9426 10.724 46.1786 10.4 46.4586 10.168C46.7386 9.932 47.0806 9.814 47.4846 9.814C47.6126 9.814 47.7346 9.828 47.8506 9.856C47.9706 9.884 48.0766 9.928 48.1686 9.988L48.0906 10.786C48.0666 10.886 48.0066 10.936 47.9106 10.936C47.8546 10.936 47.7726 10.924 47.6646 10.9C47.5566 10.876 47.4346 10.864 47.2986 10.864C47.1066 10.864 46.9346 10.892 46.7826 10.948C46.6346 11.004 46.5006 11.088 46.3806 11.2C46.2646 11.308 46.1586 11.444 46.0626 11.608C45.9706 11.768 45.8866 11.952 45.8106 12.16V16H44.7366V9.922H45.3486C45.4646 9.922 45.5446 9.944 45.5886 9.988C45.6326 10.032 45.6626 10.108 45.6786 10.216L45.7506 11.14ZM52.9296 12.298C52.9296 12.05 52.8936 11.824 52.8216 11.62C52.7536 11.412 52.6516 11.234 52.5156 11.086C52.3836 10.934 52.2216 10.818 52.0296 10.738C51.8376 10.654 51.6196 10.612 51.3756 10.612C50.8636 10.612 50.4576 10.762 50.1576 11.062C49.8616 11.358 49.6776 11.77 49.6056 12.298H52.9296ZM53.7936 15.148C53.6616 15.308 53.5036 15.448 53.3196 15.568C53.1356 15.684 52.9376 15.78 52.7256 15.856C52.5176 15.932 52.3016 15.988 52.0776 16.024C51.8536 16.064 51.6316 16.084 51.4116 16.084C50.9916 16.084 50.6036 16.014 50.2476 15.874C49.8956 15.73 49.5896 15.522 49.3296 15.25C49.0736 14.974 48.8736 14.634 48.7296 14.23C48.5856 13.826 48.5136 13.362 48.5136 12.838C48.5136 12.414 48.5776 12.018 48.7056 11.65C48.8376 11.282 49.0256 10.964 49.2696 10.696C49.5136 10.424 49.8116 10.212 50.1636 10.06C50.5156 9.904 50.9116 9.826 51.3516 9.826C51.7156 9.826 52.0516 9.888 52.3596 10.012C52.6716 10.132 52.9396 10.308 53.1636 10.54C53.3916 10.768 53.5696 11.052 53.6976 11.392C53.8256 11.728 53.8896 12.112 53.8896 12.544C53.8896 12.712 53.8716 12.824 53.8356 12.88C53.7996 12.936 53.7316 12.964 53.6316 12.964H49.5696C49.5816 13.348 49.6336 13.682 49.7256 13.966C49.8216 14.25 49.9536 14.488 50.1216 14.68C50.2896 14.868 50.4896 15.01 50.7216 15.106C50.9536 15.198 51.2136 15.244 51.5016 15.244C51.7696 15.244 51.9996 15.214 52.1916 15.154C52.3876 15.09 52.5556 15.022 52.6956 14.95C52.8356 14.878 52.9516 14.812 53.0436 14.752C53.1396 14.688 53.2216 14.656 53.2896 14.656C53.3776 14.656 53.4456 14.69 53.4936 14.758L53.7936 15.148ZM58.7415 10.924C58.6935 11.012 58.6195 11.056 58.5195 11.056C58.4595 11.056 58.3915 11.034 58.3155 10.99C58.2395 10.946 58.1455 10.898 58.0335 10.846C57.9255 10.79 57.7955 10.74 57.6435 10.696C57.4915 10.648 57.3115 10.624 57.1035 10.624C56.9235 10.624 56.7615 10.648 56.6175 10.696C56.4735 10.74 56.3495 10.802 56.2455 10.882C56.1455 10.962 56.0675 11.056 56.0115 11.164C55.9595 11.268 55.9335 11.382 55.9335 11.506C55.9335 11.662 55.9775 11.792 56.0655 11.896C56.1575 12 56.2775 12.09 56.4255 12.166C56.5735 12.242 56.7415 12.31 56.9295 12.37C57.1175 12.426 57.3095 12.488 57.5055 12.556C57.7055 12.62 57.8995 12.692 58.0875 12.772C58.2755 12.852 58.4435 12.952 58.5915 13.072C58.7395 13.192 58.8575 13.34 58.9455 13.516C59.0375 13.688 59.0835 13.896 59.0835 14.14C59.0835 14.42 59.0335 14.68 58.9335 14.92C58.8335 15.156 58.6855 15.362 58.4895 15.538C58.2935 15.71 58.0535 15.846 57.7695 15.946C57.4855 16.046 57.1575 16.096 56.7855 16.096C56.3615 16.096 55.9775 16.028 55.6335 15.892C55.2895 15.752 54.9975 15.574 54.7575 15.358L55.0095 14.95C55.0415 14.898 55.0795 14.858 55.1235 14.83C55.1675 14.802 55.2235 14.788 55.2915 14.788C55.3635 14.788 55.4395 14.816 55.5195 14.872C55.5995 14.928 55.6955 14.99 55.8075 15.058C55.9235 15.126 56.0635 15.188 56.2275 15.244C56.3915 15.3 56.5955 15.328 56.8395 15.328C57.0475 15.328 57.2295 15.302 57.3855 15.25C57.5415 15.194 57.6715 15.12 57.7755 15.028C57.8795 14.936 57.9555 14.83 58.0035 14.71C58.0555 14.59 58.0815 14.462 58.0815 14.326C58.0815 14.158 58.0355 14.02 57.9435 13.912C57.8555 13.8 57.7375 13.706 57.5895 13.63C57.4415 13.55 57.2715 13.482 57.0795 13.426C56.8915 13.366 56.6975 13.304 56.4975 13.24C56.3015 13.176 56.1075 13.104 55.9155 13.024C55.7275 12.94 55.5595 12.836 55.4115 12.712C55.2635 12.588 55.1435 12.436 55.0515 12.256C54.9635 12.072 54.9195 11.85 54.9195 11.59C54.9195 11.358 54.9675 11.136 55.0635 10.924C55.1595 10.708 55.2995 10.52 55.4835 10.36C55.6675 10.196 55.8935 10.066 56.1615 9.97C56.4295 9.874 56.7355 9.826 57.0795 9.826C57.4795 9.826 57.8375 9.89 58.1535 10.018C58.4735 10.142 58.7495 10.314 58.9815 10.534L58.7415 10.924ZM63.9329 10.924C63.8849 11.012 63.8109 11.056 63.7109 11.056C63.6509 11.056 63.5829 11.034 63.5069 10.99C63.4309 10.946 63.3369 10.898 63.2249 10.846C63.1169 10.79 62.9869 10.74 62.8349 10.696C62.6829 10.648 62.5029 10.624 62.2949 10.624C62.1149 10.624 61.9529 10.648 61.8089 10.696C61.6649 10.74 61.5409 10.802 61.4369 10.882C61.3369 10.962 61.2589 11.056 61.2029 11.164C61.1509 11.268 61.1249 11.382 61.1249 11.506C61.1249 11.662 61.1689 11.792 61.2569 11.896C61.3489 12 61.4689 12.09 61.6169 12.166C61.7649 12.242 61.9329 12.31 62.1209 12.37C62.3089 12.426 62.5009 12.488 62.6969 12.556C62.8969 12.62 63.0909 12.692 63.2789 12.772C63.4669 12.852 63.6349 12.952 63.7829 13.072C63.9309 13.192 64.0489 13.34 64.1369 13.516C64.2289 13.688 64.2749 13.896 64.2749 14.14C64.2749 14.42 64.2249 14.68 64.1249 14.92C64.0249 15.156 63.8769 15.362 63.6809 15.538C63.4849 15.71 63.2449 15.846 62.9609 15.946C62.6769 16.046 62.3489 16.096 61.9769 16.096C61.5529 16.096 61.1689 16.028 60.8249 15.892C60.4809 15.752 60.1889 15.574 59.9489 15.358L60.2009 14.95C60.2329 14.898 60.2709 14.858 60.3149 14.83C60.3589 14.802 60.4149 14.788 60.4829 14.788C60.5549 14.788 60.6309 14.816 60.7109 14.872C60.7909 14.928 60.8869 14.99 60.9989 15.058C61.1149 15.126 61.2549 15.188 61.4189 15.244C61.5829 15.3 61.7869 15.328 62.0309 15.328C62.2389 15.328 62.4209 15.302 62.5769 15.25C62.7329 15.194 62.8629 15.12 62.9669 15.028C63.0709 14.936 63.1469 14.83 63.1949 14.71C63.2469 14.59 63.2729 14.462 63.2729 14.326C63.2729 14.158 63.2269 14.02 63.1349 13.912C63.0469 13.8 62.9289 13.706 62.7809 13.63C62.6329 13.55 62.4629 13.482 62.2709 13.426C62.0829 13.366 61.8889 13.304 61.6889 13.24C61.4929 13.176 61.2989 13.104 61.1069 13.024C60.9189 12.94 60.7509 12.836 60.6029 12.712C60.4549 12.588 60.3349 12.436 60.2429 12.256C60.1549 12.072 60.1109 11.85 60.1109 11.59C60.1109 11.358 60.1589 11.136 60.2549 10.924C60.3509 10.708 60.4909 10.52 60.6749 10.36C60.8589 10.196 61.0849 10.066 61.3529 9.97C61.6209 9.874 61.9269 9.826 62.2709 9.826C62.6709 9.826 63.0289 9.89 63.3449 10.018C63.6649 10.142 63.9409 10.314 64.1729 10.534L63.9329 10.924Z" fill="#42FF4A"/>
</svg>
